<mxfile host="app.diagrams.net" modified="2024-07-08T23:15:13.052Z" agent="Mozilla/5.0 (Windows NT 10.0; Win64; x64) AppleWebKit/537.36 (KHTML, like Gecko) Chrome/126.0.0.0 Safari/537.36" etag="vasI7zy29RV785TirWzS" version="24.6.4" type="github">
  <diagram name="Page-1" id="Q0_OT5iFlBCkjEAoQMfF">
    <mxGraphModel dx="2534" dy="738" grid="0" gridSize="10" guides="1" tooltips="1" connect="1" arrows="1" fold="1" page="1" pageScale="1" pageWidth="1100" pageHeight="1700" math="0" shadow="0">
      <root>
        <mxCell id="0" />
        <mxCell id="1" parent="0" />
        <mxCell id="YMvvVKnGIjFAjFfc2n9P-175" value="Start" style="ellipse;aspect=fixed;strokeWidth=2;whiteSpace=wrap;" vertex="1" parent="1">
          <mxGeometry x="162" y="163" width="51" height="51" as="geometry" />
        </mxCell>
        <mxCell id="YMvvVKnGIjFAjFfc2n9P-176" value="Input Details" style="rounded=1;absoluteArcSize=1;arcSize=14;whiteSpace=wrap;strokeWidth=2;" vertex="1" parent="1">
          <mxGeometry x="134" y="264" width="107" height="34" as="geometry" />
        </mxCell>
        <mxCell id="YMvvVKnGIjFAjFfc2n9P-177" value="searchPractioners API" style="whiteSpace=wrap;strokeWidth=2;" vertex="1" parent="1">
          <mxGeometry x="103" y="367" width="169" height="34" as="geometry" />
        </mxCell>
        <mxCell id="YMvvVKnGIjFAjFfc2n9P-178" value="searchOrganization API" style="whiteSpace=wrap;strokeWidth=2;" vertex="1" parent="1">
          <mxGeometry x="222" y="470" width="179" height="34" as="geometry" />
        </mxCell>
        <mxCell id="YMvvVKnGIjFAjFfc2n9P-179" value="getContracts API" style="whiteSpace=wrap;strokeWidth=2;" vertex="1" parent="1">
          <mxGeometry x="26" y="576" width="133" height="34" as="geometry" />
        </mxCell>
        <mxCell id="YMvvVKnGIjFAjFfc2n9P-181" value="Response: Global ID, Affiliated Key" style="curved=1;startArrow=none;endArrow=block;exitX=0.17;exitY=0.99;entryX=0.33;entryY=0.01;rounded=0;" edge="1" parent="1" source="YMvvVKnGIjFAjFfc2n9P-177" target="YMvvVKnGIjFAjFfc2n9P-179">
          <mxGeometry relative="1" as="geometry">
            <Array as="points">
              <mxPoint x="20" y="435" />
              <mxPoint x="20" y="538" />
            </Array>
          </mxGeometry>
        </mxCell>
        <mxCell id="YMvvVKnGIjFAjFfc2n9P-182" value="No Response" style="curved=1;startArrow=none;endArrow=block;exitX=0.74;exitY=0.99;entryX=0.5;entryY=-0.01;rounded=0;" edge="1" parent="1" source="YMvvVKnGIjFAjFfc2n9P-177" target="YMvvVKnGIjFAjFfc2n9P-178">
          <mxGeometry relative="1" as="geometry">
            <Array as="points">
              <mxPoint x="312" y="435" />
            </Array>
          </mxGeometry>
        </mxCell>
        <mxCell id="YMvvVKnGIjFAjFfc2n9P-183" value="Response: Global ID, Affiliated Key" style="curved=1;startArrow=none;endArrow=block;exitX=0.33;exitY=0.99;entryX=0.79;entryY=0.01;rounded=0;" edge="1" parent="1" source="YMvvVKnGIjFAjFfc2n9P-178" target="YMvvVKnGIjFAjFfc2n9P-179">
          <mxGeometry relative="1" as="geometry">
            <Array as="points">
              <mxPoint x="217" y="538" />
            </Array>
          </mxGeometry>
        </mxCell>
        <mxCell id="YMvvVKnGIjFAjFfc2n9P-185" value="Input" style="curved=1;startArrow=none;endArrow=block;exitX=0.5;exitY=0.99;entryX=0.5;entryY=-0.01;rounded=0;" edge="1" parent="1" source="YMvvVKnGIjFAjFfc2n9P-176" target="YMvvVKnGIjFAjFfc2n9P-177">
          <mxGeometry relative="1" as="geometry">
            <Array as="points" />
          </mxGeometry>
        </mxCell>
        <mxCell id="YMvvVKnGIjFAjFfc2n9P-186" value="" style="curved=1;startArrow=none;endArrow=block;exitX=0.49;exitY=0.99;entryX=0.5;entryY=-0.01;rounded=0;" edge="1" parent="1" source="YMvvVKnGIjFAjFfc2n9P-175" target="YMvvVKnGIjFAjFfc2n9P-176">
          <mxGeometry relative="1" as="geometry">
            <Array as="points" />
          </mxGeometry>
        </mxCell>
      </root>
    </mxGraphModel>
  </diagram>
</mxfile>
